<?xml version="1.0" encoding="UTF-8" standalone="no"?>
<!DOCTYPE svg PUBLIC "-//W3C//DTD SVG 1.1//EN"
 "http://www.w3.org/Graphics/SVG/1.1/DTD/svg11.dtd">
<!-- Generated by graphviz version 2.49.1 (20210923.0004)
 -->
<!-- Title: finite_state_machine Pages: 1 -->
<svg width="855pt" height="498pt"
 viewBox="0.00 0.00 855.46 497.92" xmlns="http://www.w3.org/2000/svg" xmlns:xlink="http://www.w3.org/1999/xlink">
<g id="graph0" class="graph" transform="scale(1 1) rotate(0) translate(4 493.92)">
<title>finite_state_machine</title>
<polygon fill="white" stroke="transparent" points="-4,4 -4,-493.92 851.46,-493.92 851.46,4 -4,4"/>
<!-- NORMAL -->
<g id="node1" class="node">
<title>NORMAL</title>
<ellipse fill="none" stroke="black" cx="54.05" cy="-144.33" rx="50.09" ry="50.09"/>
<ellipse fill="none" stroke="black" cx="54.05" cy="-144.33" rx="54.09" ry="54.09"/>
<text text-anchor="middle" x="54.05" y="-140.63" font-family="Times New Roman,serif" font-size="14.00">NORMAL</text>
</g>
<!-- NORMAL&#45;&gt;NORMAL -->
<g id="edge6" class="edge">
<title>NORMAL&#45;&gt;NORMAL</title>
<path fill="none" stroke="black" d="M28.65,-192.13C29.64,-205.82 38.11,-216.37 54.05,-216.37 65.87,-216.37 73.59,-210.56 77.19,-201.96"/>
<polygon fill="black" stroke="black" points="80.62,-202.66 79.45,-192.13 73.79,-201.09 80.62,-202.66"/>
</g>
<!-- TO_HOT -->
<g id="node5" class="node">
<title>TO_HOT</title>
<ellipse fill="none" stroke="black" cx="326.39" cy="-318.33" rx="47.39" ry="47.39"/>
<text text-anchor="middle" x="326.39" y="-314.63" font-family="Times New Roman,serif" font-size="14.00">TO_HOT</text>
</g>
<!-- NORMAL&#45;&gt;TO_HOT -->
<g id="edge2" class="edge">
<title>NORMAL&#45;&gt;TO_HOT</title>
<path fill="none" stroke="black" d="M99.99,-173.25C149.1,-204.86 227.45,-255.29 277.64,-287.59"/>
<polygon fill="black" stroke="black" points="275.75,-290.54 286.05,-293.01 279.54,-284.65 275.75,-290.54"/>
<text text-anchor="middle" x="190.59" y="-275.13" font-family="Times New Roman,serif" font-size="14.00">Air temperature to high</text>
</g>
<!-- TO_COLD -->
<g id="node6" class="node">
<title>TO_COLD</title>
<ellipse fill="none" stroke="black" cx="326.39" cy="-144.33" rx="53.09" ry="53.09"/>
<text text-anchor="middle" x="326.39" y="-140.63" font-family="Times New Roman,serif" font-size="14.00">TO_COLD</text>
</g>
<!-- NORMAL&#45;&gt;TO_COLD -->
<g id="edge3" class="edge">
<title>NORMAL&#45;&gt;TO_COLD</title>
<path fill="none" stroke="black" d="M108.13,-144.33C152.54,-144.33 215.98,-144.33 262.85,-144.33"/>
<polygon fill="black" stroke="black" points="262.88,-147.83 272.88,-144.33 262.88,-140.83 262.88,-147.83"/>
<text text-anchor="middle" x="190.59" y="-148.13" font-family="Times New Roman,serif" font-size="14.00">Air temperature to low</text>
</g>
<!-- HIGH_TEMP_MODE -->
<g id="node2" class="node">
<title>HIGH_TEMP_MODE</title>
<ellipse fill="none" stroke="black" cx="619.27" cy="-374.33" rx="93.68" ry="93.68"/>
<ellipse fill="none" stroke="black" cx="619.27" cy="-374.33" rx="97.68" ry="97.68"/>
<text text-anchor="middle" x="619.27" y="-370.63" font-family="Times New Roman,serif" font-size="14.00">HIGH_TEMP_MODE</text>
</g>
<!-- HIGH_TEMP_MODE&#45;&gt;HIGH_TEMP_MODE -->
<g id="edge7" class="edge">
<title>HIGH_TEMP_MODE&#45;&gt;HIGH_TEMP_MODE</title>
<path fill="none" stroke="black" d="M600.46,-470.43C603.83,-482.2 610.1,-489.92 619.27,-489.92 625.73,-489.92 630.74,-486.1 634.32,-479.75"/>
<polygon fill="black" stroke="black" points="637.58,-481.02 638.09,-470.43 631.1,-478.39 637.58,-481.02"/>
</g>
<!-- CANCEL -->
<g id="node4" class="node">
<title>CANCEL</title>
<ellipse fill="none" stroke="black" cx="800.66" cy="-144.33" rx="46.59" ry="46.59"/>
<text text-anchor="middle" x="800.66" y="-140.63" font-family="Times New Roman,serif" font-size="14.00">CANCEL</text>
</g>
<!-- HIGH_TEMP_MODE&#45;&gt;CANCEL -->
<g id="edge8" class="edge">
<title>HIGH_TEMP_MODE&#45;&gt;CANCEL</title>
<path fill="none" stroke="black" d="M686.66,-303.59C697.06,-291.72 707.46,-279.35 716.87,-267.33 735.49,-243.5 754.46,-215.63 769.53,-192.46"/>
<polygon fill="black" stroke="black" points="772.62,-194.12 775.11,-183.82 766.74,-190.32 772.62,-194.12"/>
</g>
<!-- LOW_TEMP_MODE -->
<g id="node3" class="node">
<title>LOW_TEMP_MODE</title>
<ellipse fill="none" stroke="black" cx="619.27" cy="-144.33" rx="92.09" ry="92.09"/>
<ellipse fill="none" stroke="black" cx="619.27" cy="-144.33" rx="96.08" ry="96.08"/>
<text text-anchor="middle" x="619.27" y="-140.63" font-family="Times New Roman,serif" font-size="14.00">LOW_TEMP_MODE</text>
</g>
<!-- LOW_TEMP_MODE&#45;&gt;LOW_TEMP_MODE -->
<g id="edge9" class="edge">
<title>LOW_TEMP_MODE&#45;&gt;LOW_TEMP_MODE</title>
<path fill="none" stroke="black" d="M600.33,-238.92C603.67,-250.8 609.98,-258.62 619.27,-258.62 625.8,-258.62 630.87,-254.75 634.45,-248.33"/>
<polygon fill="black" stroke="black" points="637.75,-249.51 638.21,-238.92 631.25,-246.91 637.75,-249.51"/>
</g>
<!-- LOW_TEMP_MODE&#45;&gt;CANCEL -->
<g id="edge10" class="edge">
<title>LOW_TEMP_MODE&#45;&gt;CANCEL</title>
<path fill="none" stroke="black" d="M715.74,-144.33C725.25,-144.33 734.66,-144.33 743.56,-144.33"/>
<polygon fill="black" stroke="black" points="743.75,-147.83 753.75,-144.33 743.75,-140.83 743.75,-147.83"/>
</g>
<!-- CANCEL&#45;&gt;NORMAL -->
<g id="edge1" class="edge">
<title>CANCEL&#45;&gt;NORMAL</title>
<path fill="none" stroke="black" d="M778.97,-102.63C764.95,-79.36 744.02,-52.49 716.87,-39.33 510.48,60.76 229.44,-55.6 111.15,-114.37"/>
<polygon fill="black" stroke="black" points="109.27,-111.4 101.91,-119.02 112.41,-117.66 109.27,-111.4"/>
<text text-anchor="middle" x="450.68" y="-17.13" font-family="Times New Roman,serif" font-size="14.00">Turn open airvents</text>
</g>
<!-- TO_HOT&#45;&gt;HIGH_TEMP_MODE -->
<g id="edge5" class="edge">
<title>TO_HOT&#45;&gt;HIGH_TEMP_MODE</title>
<path fill="none" stroke="black" d="M373.16,-327.14C410.65,-334.36 465.18,-344.85 513.29,-354.11"/>
<polygon fill="black" stroke="black" points="512.65,-357.56 523.13,-356.01 513.97,-350.68 512.65,-357.56"/>
<text text-anchor="middle" x="450.68" y="-355.13" font-family="Times New Roman,serif" font-size="14.00">Close airvents</text>
</g>
<!-- TO_COLD&#45;&gt;LOW_TEMP_MODE -->
<g id="edge4" class="edge">
<title>TO_COLD&#45;&gt;LOW_TEMP_MODE</title>
<path fill="none" stroke="black" d="M379.73,-144.33C416.68,-144.33 467.47,-144.33 512.68,-144.33"/>
<polygon fill="black" stroke="black" points="512.84,-147.83 522.84,-144.33 512.84,-140.83 512.84,-147.83"/>
<text text-anchor="middle" x="450.68" y="-148.13" font-family="Times New Roman,serif" font-size="14.00">Close airvents</text>
</g>
</g>
</svg>
