<?xml version="1.0" encoding="UTF-8" standalone="no"?>
<!DOCTYPE svg PUBLIC "-//W3C//DTD SVG 1.1//EN"
 "http://www.w3.org/Graphics/SVG/1.1/DTD/svg11.dtd">
<!-- Generated by graphviz version 2.49.1 (20210923.0004)
 -->
<!-- Title: finite_state_machine Pages: 1 -->
<svg width="1064pt" height="436pt"
 viewBox="0.00 0.00 1063.56 435.88" xmlns="http://www.w3.org/2000/svg" xmlns:xlink="http://www.w3.org/1999/xlink">
<g id="graph0" class="graph" transform="scale(1 1) rotate(0) translate(4 431.88)">
<title>finite_state_machine</title>
<polygon fill="white" stroke="transparent" points="-4,4 -4,-431.88 1059.56,-431.88 1059.56,4 -4,4"/>
<!-- NORMAL -->
<g id="node1" class="node">
<title>NORMAL</title>
<ellipse fill="none" stroke="black" cx="93.5" cy="-276.69" rx="50.09" ry="50.09"/>
<ellipse fill="none" stroke="black" cx="93.5" cy="-276.69" rx="54.09" ry="54.09"/>
<text text-anchor="middle" x="93.5" y="-272.99" font-family="Times New Roman,serif" font-size="14.00">NORMAL</text>
</g>
<!-- NORMAL&#45;&gt;NORMAL -->
<g id="edge6" class="edge">
<title>NORMAL&#45;&gt;NORMAL</title>
<path fill="none" stroke="black" d="M59.85,-319.23C58.55,-335.38 69.77,-348.74 93.5,-348.74 112.04,-348.74 122.94,-340.58 126.2,-329.32"/>
<polygon fill="black" stroke="black" points="129.7,-329.51 127.15,-319.23 122.73,-328.86 129.7,-329.51"/>
</g>
<!-- REQ_HIGHFLOW -->
<g id="node8" class="node">
<title>REQ_HIGHFLOW</title>
<ellipse fill="none" stroke="black" cx="464.69" cy="-344.69" rx="83.39" ry="83.39"/>
<text text-anchor="middle" x="464.69" y="-340.99" font-family="Times New Roman,serif" font-size="14.00">REQ_HIGHFLOW</text>
</g>
<!-- NORMAL&#45;&gt;REQ_HIGHFLOW -->
<g id="edge2" class="edge">
<title>NORMAL&#45;&gt;REQ_HIGHFLOW</title>
<path fill="none" stroke="black" d="M147,-286.36C205.76,-297.18 301.99,-314.91 372.99,-327.98"/>
<polygon fill="black" stroke="black" points="372.36,-331.43 382.83,-329.8 373.63,-324.54 372.36,-331.43"/>
<text text-anchor="middle" x="274.5" y="-324.49" font-family="Times New Roman,serif" font-size="14.00">High Humidity</text>
</g>
<!-- OVERRIDE -->
<g id="node2" class="node">
<title>OVERRIDE</title>
<ellipse fill="none" stroke="black" cx="746.18" cy="-109.69" rx="56.59" ry="56.59"/>
<ellipse fill="none" stroke="black" cx="746.18" cy="-109.69" rx="60.59" ry="60.59"/>
<text text-anchor="middle" x="746.18" y="-105.99" font-family="Times New Roman,serif" font-size="14.00">OVERRIDE</text>
</g>
<!-- OVERRIDE&#45;&gt;OVERRIDE -->
<g id="edge8" class="edge">
<title>OVERRIDE&#45;&gt;OVERRIDE</title>
<path fill="none" stroke="black" d="M724.23,-166.17C726.2,-178.92 733.52,-188.24 746.18,-188.24 755.27,-188.24 761.61,-183.42 765.19,-175.98"/>
<polygon fill="black" stroke="black" points="768.61,-176.76 768.13,-166.17 761.91,-174.75 768.61,-176.76"/>
<text text-anchor="middle" x="746.18" y="-192.04" font-family="Times New Roman,serif" font-size="14.00">Timer</text>
</g>
<!-- CANCEL -->
<g id="node7" class="node">
<title>CANCEL</title>
<ellipse fill="none" stroke="black" cx="1008.77" cy="-233.69" rx="46.59" ry="46.59"/>
<text text-anchor="middle" x="1008.77" y="-229.99" font-family="Times New Roman,serif" font-size="14.00">CANCEL</text>
</g>
<!-- OVERRIDE&#45;&gt;CANCEL -->
<g id="edge9" class="edge">
<title>OVERRIDE&#45;&gt;CANCEL</title>
<path fill="none" stroke="black" d="M801.17,-135.38C846.96,-157.17 912.16,-188.2 957.01,-209.54"/>
<polygon fill="black" stroke="black" points="955.72,-212.8 966.25,-213.94 958.73,-206.48 955.72,-212.8"/>
<text text-anchor="middle" x="885.97" y="-203.49" font-family="Times New Roman,serif" font-size="14.00">Cancel override</text>
</g>
<!-- HIGHFLOW -->
<g id="node3" class="node">
<title>HIGHFLOW</title>
<ellipse fill="none" stroke="black" cx="746.18" cy="-334.69" rx="59.6" ry="59.6"/>
<ellipse fill="none" stroke="black" cx="746.18" cy="-334.69" rx="63.59" ry="63.59"/>
<text text-anchor="middle" x="746.18" y="-330.99" font-family="Times New Roman,serif" font-size="14.00">HIGHFLOW</text>
</g>
<!-- HIGHFLOW&#45;&gt;HIGHFLOW -->
<g id="edge11" class="edge">
<title>HIGHFLOW&#45;&gt;HIGHFLOW</title>
<path fill="none" stroke="black" d="M724.47,-394.97C726.75,-407.49 733.99,-416.49 746.18,-416.49 754.94,-416.49 761.14,-411.84 764.78,-404.57"/>
<polygon fill="black" stroke="black" points="768.14,-405.56 767.89,-394.97 761.48,-403.41 768.14,-405.56"/>
</g>
<!-- HIGHFLOW&#45;&gt;CANCEL -->
<g id="edge12" class="edge">
<title>HIGHFLOW&#45;&gt;CANCEL</title>
<path fill="none" stroke="black" d="M805.98,-311.9C850.92,-294.48 912.29,-270.7 955.52,-253.94"/>
<polygon fill="black" stroke="black" points="956.94,-257.15 965,-250.27 954.41,-250.62 956.94,-257.15"/>
<text text-anchor="middle" x="885.97" y="-305.49" font-family="Times New Roman,serif" font-size="14.00">Humidity normalized</text>
</g>
<!-- REQ_LONG_OVERRIDE -->
<g id="node4" class="node">
<title>REQ_LONG_OVERRIDE</title>
<polygon fill="none" stroke="black" points="166.5,-168.69 8.5,-168.69 8.5,-144.69 166.5,-144.69 178.5,-156.69 166.5,-168.69"/>
<text text-anchor="middle" x="93.5" y="-152.99" font-family="Times New Roman,serif" font-size="14.00">REQ_LONG_OVERRIDE</text>
</g>
<!-- REQUEST_OVERRIDE -->
<g id="node9" class="node">
<title>REQUEST_OVERRIDE</title>
<ellipse fill="none" stroke="black" cx="464.69" cy="-102.69" rx="102.88" ry="102.88"/>
<text text-anchor="middle" x="464.69" y="-98.99" font-family="Times New Roman,serif" font-size="14.00">REQUEST_OVERRIDE</text>
</g>
<!-- REQ_LONG_OVERRIDE&#45;&gt;REQUEST_OVERRIDE -->
<g id="edge5" class="edge">
<title>REQ_LONG_OVERRIDE&#45;&gt;REQUEST_OVERRIDE</title>
<path fill="none" stroke="black" d="M178.58,-145.28C226.98,-138.62 288.95,-129.92 344,-121.69 347.02,-121.24 350.09,-120.78 353.18,-120.31"/>
<polygon fill="black" stroke="black" points="353.78,-123.76 363.14,-118.79 352.73,-116.84 353.78,-123.76"/>
<text text-anchor="middle" x="274.5" y="-145.49" font-family="Times New Roman,serif" font-size="14.00">Manual override long</text>
</g>
<!-- REQ_MEDIUM_OVERRIDE -->
<g id="node5" class="node">
<title>REQ_MEDIUM_OVERRIDE</title>
<polygon fill="none" stroke="black" points="175,-114.69 0,-114.69 0,-90.69 175,-90.69 187,-102.69 175,-114.69"/>
<text text-anchor="middle" x="93.5" y="-98.99" font-family="Times New Roman,serif" font-size="14.00">REQ_MEDIUM_OVERRIDE</text>
</g>
<!-- REQ_MEDIUM_OVERRIDE&#45;&gt;REQUEST_OVERRIDE -->
<g id="edge4" class="edge">
<title>REQ_MEDIUM_OVERRIDE&#45;&gt;REQUEST_OVERRIDE</title>
<path fill="none" stroke="black" d="M187.19,-102.69C237.15,-102.69 299.18,-102.69 351.82,-102.69"/>
<polygon fill="black" stroke="black" points="351.87,-106.19 361.87,-102.69 351.87,-99.19 351.87,-106.19"/>
<text text-anchor="middle" x="274.5" y="-106.49" font-family="Times New Roman,serif" font-size="14.00">Manual override medium</text>
</g>
<!-- REQ_SHORT_OVERRIDE -->
<g id="node6" class="node">
<title>REQ_SHORT_OVERRIDE</title>
<polygon fill="none" stroke="black" points="170.5,-60.69 4.5,-60.69 4.5,-36.69 170.5,-36.69 182.5,-48.69 170.5,-60.69"/>
<text text-anchor="middle" x="93.5" y="-44.99" font-family="Times New Roman,serif" font-size="14.00">REQ_SHORT_OVERRIDE</text>
</g>
<!-- REQ_SHORT_OVERRIDE&#45;&gt;REQUEST_OVERRIDE -->
<g id="edge3" class="edge">
<title>REQ_SHORT_OVERRIDE&#45;&gt;REQUEST_OVERRIDE</title>
<path fill="none" stroke="black" d="M182.6,-60.65C230.39,-67.24 290.47,-75.69 344,-83.69 347.02,-84.14 350.09,-84.6 353.18,-85.07"/>
<polygon fill="black" stroke="black" points="352.73,-88.54 363.14,-86.59 353.78,-81.63 352.73,-88.54"/>
<text text-anchor="middle" x="274.5" y="-87.49" font-family="Times New Roman,serif" font-size="14.00">Manual override short</text>
</g>
<!-- CANCEL&#45;&gt;NORMAL -->
<g id="edge1" class="edge">
<title>CANCEL&#45;&gt;NORMAL</title>
<path fill="none" stroke="black" d="M961.92,-234.09C856.12,-235.23 586.77,-239.31 362,-252.69 291.93,-256.86 211.76,-264.43 157.61,-269.95"/>
<polygon fill="black" stroke="black" points="157.06,-266.49 147.47,-270.99 157.77,-273.45 157.06,-266.49"/>
<text text-anchor="middle" x="624.88" y="-245.49" font-family="Times New Roman,serif" font-size="14.00">RELAIS reset</text>
</g>
<!-- REQ_HIGHFLOW&#45;&gt;HIGHFLOW -->
<g id="edge10" class="edge">
<title>REQ_HIGHFLOW&#45;&gt;HIGHFLOW</title>
<path fill="none" stroke="black" d="M548.03,-341.74C587.18,-340.34 633.61,-338.68 671.57,-337.32"/>
<polygon fill="black" stroke="black" points="672.17,-340.81 682.04,-336.95 671.92,-333.81 672.17,-340.81"/>
<text text-anchor="middle" x="624.88" y="-343.49" font-family="Times New Roman,serif" font-size="14.00">RELAIS set</text>
</g>
<!-- REQUEST_OVERRIDE&#45;&gt;OVERRIDE -->
<g id="edge7" class="edge">
<title>REQUEST_OVERRIDE&#45;&gt;OVERRIDE</title>
<path fill="none" stroke="black" d="M567.38,-105.24C603.15,-106.13 642.53,-107.12 675.11,-107.94"/>
<polygon fill="black" stroke="black" points="675.35,-111.44 685.44,-108.19 675.53,-104.45 675.35,-111.44"/>
<text text-anchor="middle" x="624.88" y="-111.49" font-family="Times New Roman,serif" font-size="14.00">RELAIS set</text>
</g>
</g>
</svg>
