<?xml version="1.0" encoding="UTF-8" standalone="no"?>
<!DOCTYPE svg PUBLIC "-//W3C//DTD SVG 1.1//EN"
 "http://www.w3.org/Graphics/SVG/1.1/DTD/svg11.dtd">
<!-- Generated by graphviz version 2.49.1 (20210923.0004)
 -->
<!-- Title: finite_state_machine Pages: 1 -->
<svg width="619pt" height="210pt"
 viewBox="0.00 0.00 618.58 210.29" xmlns="http://www.w3.org/2000/svg" xmlns:xlink="http://www.w3.org/1999/xlink">
<g id="graph0" class="graph" transform="scale(1 1) rotate(0) translate(4 206.29)">
<title>finite_state_machine</title>
<polygon fill="white" stroke="transparent" points="-4,4 -4,-206.29 614.58,-206.29 614.58,4 -4,4"/>
<!-- OFF -->
<g id="node1" class="node">
<title>OFF</title>
<ellipse fill="none" stroke="black" cx="32.6" cy="-32.6" rx="28.68" ry="28.68"/>
<ellipse fill="none" stroke="black" cx="32.6" cy="-32.6" rx="32.7" ry="32.7"/>
<text text-anchor="middle" x="32.6" y="-28.9" font-family="Times New Roman,serif" font-size="14.00">OFF</text>
</g>
<!-- OFF&#45;&gt;OFF -->
<g id="edge2" class="edge">
<title>OFF&#45;&gt;OFF</title>
<path fill="none" stroke="black" d="M23.22,-64.22C23.22,-74.76 26.35,-83.19 32.6,-83.19 36.6,-83.19 39.32,-79.73 40.76,-74.48"/>
<polygon fill="black" stroke="black" points="44.28,-74.56 41.97,-64.22 37.32,-73.74 44.28,-74.56"/>
</g>
<!-- REQUEST -->
<g id="node4" class="node">
<title>REQUEST</title>
<polygon fill="none" stroke="black" points="170.19,-103.6 102.19,-103.6 102.19,-79.6 170.19,-79.6 182.19,-91.6 170.19,-103.6"/>
<text text-anchor="middle" x="142.19" y="-87.9" font-family="Times New Roman,serif" font-size="14.00">REQUEST</text>
</g>
<!-- OFF&#45;&gt;REQUEST -->
<g id="edge5" class="edge">
<title>OFF&#45;&gt;REQUEST</title>
<path fill="none" stroke="black" d="M61.59,-47.94C73.01,-54.21 86.47,-61.59 99.04,-68.48"/>
<polygon fill="black" stroke="black" points="97.54,-71.65 107.99,-73.39 100.91,-65.51 97.54,-71.65"/>
</g>
<!-- REQUESTED -->
<g id="node2" class="node">
<title>REQUESTED</title>
<ellipse fill="none" stroke="black" cx="433.89" cy="-116.6" rx="63.88" ry="63.88"/>
<ellipse fill="none" stroke="black" cx="433.89" cy="-116.6" rx="67.89" ry="67.89"/>
<text text-anchor="middle" x="433.89" y="-112.9" font-family="Times New Roman,serif" font-size="14.00">REQUESTED</text>
</g>
<!-- REQUESTED&#45;&gt;REQUESTED -->
<g id="edge6" class="edge">
<title>REQUESTED&#45;&gt;REQUESTED</title>
<path fill="none" stroke="black" d="M418.77,-182.71C420.79,-194.26 425.83,-202.29 433.89,-202.29 439.43,-202.29 443.55,-198.49 446.23,-192.37"/>
<polygon fill="black" stroke="black" points="449.61,-193.29 449.01,-182.71 442.88,-191.35 449.61,-193.29"/>
</g>
<!-- CANCEL -->
<g id="node3" class="node">
<title>CANCEL</title>
<polygon fill="none" stroke="black" points="598.58,-44.6 538.58,-44.6 538.58,-20.6 598.58,-20.6 610.58,-32.6 598.58,-44.6"/>
<text text-anchor="middle" x="574.58" y="-28.9" font-family="Times New Roman,serif" font-size="14.00">CANCEL</text>
</g>
<!-- REQUESTED&#45;&gt;CANCEL -->
<g id="edge4" class="edge">
<title>REQUESTED&#45;&gt;CANCEL</title>
<path fill="none" stroke="black" d="M492.1,-81.95C506.53,-73.21 521.68,-64.03 534.96,-55.99"/>
<polygon fill="black" stroke="black" points="537.07,-58.8 543.81,-50.63 533.44,-52.82 537.07,-58.8"/>
</g>
<!-- CANCEL&#45;&gt;OFF -->
<g id="edge1" class="edge">
<title>CANCEL&#45;&gt;OFF</title>
<path fill="none" stroke="black" d="M538.39,-32.6C442.75,-32.6 178.33,-32.6 75.38,-32.6"/>
<polygon fill="black" stroke="black" points="75.36,-29.1 65.36,-32.6 75.36,-36.1 75.36,-29.1"/>
<text text-anchor="middle" x="274.19" y="-36.4" font-family="Times New Roman,serif" font-size="14.00">Close valve, Stop CH req.</text>
</g>
<!-- REQUEST&#45;&gt;REQUESTED -->
<g id="edge3" class="edge">
<title>REQUEST&#45;&gt;REQUESTED</title>
<path fill="none" stroke="black" d="M182.26,-94.97C226.61,-98.8 300.04,-105.13 355.98,-109.96"/>
<polygon fill="black" stroke="black" points="355.95,-113.47 366.21,-110.84 356.55,-106.5 355.95,-113.47"/>
<text text-anchor="middle" x="274.19" y="-112.4" font-family="Times New Roman,serif" font-size="14.00">Open valve, Start CH req.</text>
</g>
</g>
</svg>
